ffmpeg version 3.4.8-0ubuntu0.2 Copyright (c) 2000-2020 the FFmpeg developers
  built with gcc 7 (Ubuntu 7.5.0-3ubuntu1~18.04)
  configuration: --prefix=/usr --extra-version=0ubuntu0.2 --toolchain=hardened --libdir=/usr/lib/x86_64-linux-gnu --incdir=/usr/include/x86_64-linux-gnu --enable-gpl --disable-stripping --enable-avresample --enable-avisynth --enable-gnutls --enable-ladspa --enable-libass --enable-libbluray --enable-libbs2b --enable-libcaca --enable-libcdio --enable-libflite --enable-libfontconfig --enable-libfreetype --enable-libfribidi --enable-libgme --enable-libgsm --enable-libmp3lame --enable-libmysofa --enable-libopenjpeg --enable-libopenmpt --enable-libopus --enable-libpulse --enable-librubberband --enable-librsvg --enable-libshine --enable-libsnappy --enable-libsoxr --enable-libspeex --enable-libssh --enable-libtheora --enable-libtwolame --enable-libvorbis --enable-libvpx --enable-libwavpack --enable-libwebp --enable-libx265 --enable-libxml2 --enable-libxvid --enable-libzmq --enable-libzvbi --enable-omx --enable-openal --enable-opengl --enable-sdl2 --enable-libdc1394 --enable-libdrm --enable-libiec61883 --enable-chromaprint --enable-frei0r --enable-libopencv --enable-libx264 --enable-shared
  libavutil      55. 78.100 / 55. 78.100
  libavcodec     57.107.100 / 57.107.100
  libavformat    57. 83.100 / 57. 83.100
  libavdevice    57. 10.100 / 57. 10.100
  libavfilter     6.107.100 /  6.107.100
  libavresample   3.  7.  0 /  3.  7.  0
  libswscale      4.  8.100 /  4.  8.100
  libswresample   2.  9.100 /  2.  9.100
  libpostproc    54.  7.100 / 54.  7.100
[rawvideo @ 0x555d302bca20] Estimating duration from bitrate, this may be inaccurate
Input #0, rawvideo, from '../../SVC-Encoder-20220109T061506Z-001/SVC-Encoder/Dataset/RollerCoaster/ERP_8x8/tile_yuv/Tile_35_480x240.yuv':
  Duration: 00:00:10.00, start: 0.000000, bitrate: 41472 kb/s
    Stream #0:0: Video: rawvideo (I420 / 0x30323449), yuv420p, 480x240, 41472 kb/s, 30 tbr, 30 tbn, 30 tbc
Stream mapping:
  Stream #0:0 -> #0:0 (rawvideo (native) -> h264 (libx264))
Press [q] to stop, [?] for help
[libx264 @ 0x555d302c9c60] using cpu capabilities: MMX2 SSE2Fast LZCNT SSSE3 SSE4.2 AVX
[libx264 @ 0x555d302c9c60] profile High, level 2.1
Output #0, rawvideo, to 'RollerCoaster_Tile_35_480x240_x264_QP_40.h264':
  Metadata:
    encoder         : Lavf57.83.100
    Stream #0:0: Video: h264 (libx264), yuv420p, 480x240, q=-1--1, 30 fps, 30 tbn, 30 tbc
    Metadata:
      encoder         : Lavc57.107.100 libx264
    Side data:
      cpb: bitrate max/min/avg: 0/0/0 buffer size: 0 vbv_delay: -1
frame=  262 fps=0.0 q=46.0 PSNR=Y:nan U:nan V:nan *:nan size=      32kB time=00:00:07.30 bitrate=  35.4kbits/s speed=14.6x    frame=  300 fps=0.0 q=46.0 LPSNR=Y:inf U:inf V:inf *:inf size=      43kB time=00:00:09.93 bitrate=  35.1kbits/s speed=16.5x    
video:43kB audio:0kB subtitle:0kB other streams:0kB global headers:0kB muxing overhead: 0.000000%
[libx264 @ 0x555d302c9c60] frame I:2     Avg QP:37.97  size:  2747  PSNR Mean Y:34.23 U:41.93 V:44.20 Avg:35.70 Global:35.56
[libx264 @ 0x555d302c9c60] frame P:76    Avg QP:39.95  size:   276  PSNR Mean Y:33.33 U:41.80 V:43.86 Avg:34.84 Global:34.82
[libx264 @ 0x555d302c9c60] frame B:222   Avg QP:45.50  size:    77  PSNR Mean Y:32.95 U:41.71 V:43.86 Avg:34.48 Global:34.46
[libx264 @ 0x555d302c9c60] consecutive B-frames:  1.3%  0.0%  0.0% 98.7%
[libx264 @ 0x555d302c9c60] mb I  I16..4: 23.2% 65.4% 11.3%
[libx264 @ 0x555d302c9c60] mb P  I16..4:  0.7%  1.3%  0.0%  P16..4: 20.5%  2.2%  0.2%  0.0%  0.0%    skip:75.0%
[libx264 @ 0x555d302c9c60] mb B  I16..4:  0.0%  0.0%  0.0%  B16..8: 11.9%  0.1%  0.0%  direct: 0.0%  skip:88.0%  L0:39.0% L1:60.9% BI: 0.1%
[libx264 @ 0x555d302c9c60] 8x8 transform intra:65.0% inter:89.1%
[libx264 @ 0x555d302c9c60] coded y,uvDC,uvAC intra: 16.0% 20.1% 3.7% inter: 0.6% 0.7% 0.0%
[libx264 @ 0x555d302c9c60] i16 v,h,dc,p: 34% 49% 12%  5%
[libx264 @ 0x555d302c9c60] i8 v,h,dc,ddl,ddr,vr,hd,vl,hu:  5%  5% 81%  1%  0%  1%  3%  4%  1%
[libx264 @ 0x555d302c9c60] i4 v,h,dc,ddl,ddr,vr,hd,vl,hu: 16% 23% 20%  8%  2%  3% 12% 14%  2%
[libx264 @ 0x555d302c9c60] i8c dc,h,v,p: 83%  7%  7%  3%
[libx264 @ 0x555d302c9c60] Weighted P-Frames: Y:0.0% UV:0.0%
[libx264 @ 0x555d302c9c60] ref P L0: 61.2% 20.6% 14.8%  3.4%
[libx264 @ 0x555d302c9c60] ref B L0: 83.6% 15.7%  0.7%
[libx264 @ 0x555d302c9c60] ref B L1: 86.9% 13.1%
[libx264 @ 0x555d302c9c60] PSNR Mean Y:33.052 U:41.735 V:43.863 Avg:34.580 Global:34.554 kb/s:34.86
